<svg version="1.0"
	xmlns="http://www.w3.org/2000/svg"
	xmlns:xlink="http://www.w3.org/1999/xlink" viewBox="0 0 14.4 20">
	<path d="M13.37,5.47H1.03C0.46,5.47,0,5.01,0,4.44V3.89c0-0.57,0.46-1.03,1.03-1.03h12.34c0.57,0,1.03,0.46,1.03,1.03v0.55 C14.4,5.01,13.94,5.47,13.37,5.47z"/>
	<path d="M4.61,1v1.46h0.92V1.44h3.35v1.02h0.92V1c0-0.55-0.45-1-1-1H5.61C5.05,0,4.61,0.45,4.61,1z"/>
	<path d="M1.25,5.82l1.41,13.33C2.72,19.63,3.13,20,3.61,20h7.16c0.49,0,0.89-0.37,0.94-0.85l1.43-13.33L1.25,5.82L1.25,5.82z M4.6,18.18c-0.36,0.03-0.67-0.24-0.71-0.6l-0.82-8.8C3.04,8.3,3.4,7.88,3.88,7.85c0.48-0.03,0.9,0.33,0.93,0.81l0.4,8.84 C5.23,17.85,4.96,18.16,4.6,18.18z M7.85,17.54c-0.01,0.36-0.3,0.65-0.66,0.65c-0.36,0-0.65-0.29-0.66-0.65L6.33,8.7 c0-0.48,0.39-0.87,0.87-0.87l0,0c0.48,0,0.87,0.39,0.87,0.87L7.85,17.54z M11.32,8.78l-0.82,8.8c-0.03,0.36-0.35,0.62-0.71,0.6l0,0 c-0.36-0.03-0.63-0.33-0.62-0.69l0.4-8.84c0.03-0.48,0.45-0.84,0.93-0.81C11,7.88,11.36,8.3,11.32,8.78z"/>
</svg>
